# xmcd CD database file
#
# Track frame offsets:
#	150
#	13543
#	25738
#	40963
#	56270
#	79530
#	90983
#	106235
#	125975
#	138453
#	158648
#	174693
#	187788
#
# Disc length: 2964 seconds
#
# Revision: 0
# Processed by: cddbd v1.4PL0 Copyright (c) Steve Scherf et al.
# Submitted via: CDex 1.50beta9
#
DISCID=970b920d
DTITLE=Pony Express - Ghostriders
DYEAR=1993
DGENRE=Country
TTITLE0=Ghostriders In The Sky
TTITLE1=Cotton Exed Joe
TTITLE2=High Horse Woman
TTITLE3=Achy Breaky Heart
TTITLE4=Filmmelodien-Medley Teil 1
TTITLE5=Eastbound And Down
TTITLE6=Let Your Love Flow
TTITLE7=Battle Of New Orleans-Medley
TTITLE8=Country Boy
TTITLE9=Kaw-Liga
TTITLE10=Country Roads
TTITLE11=Blue Moon Of Kentucky
TTITLE12=Filmmelodien-Medley Teil 2
EXTD=YEAR: 1993
EXTT0=
EXTT1=
EXTT2=
EXTT3=
EXTT4=
EXTT5=
EXTT6=
EXTT7=
EXTT8=
EXTT9=
EXTT10=
EXTT11=
EXTT12=
PLAYORDER=
